<svg xmlns="http://www.w3.org/2000/svg" width="1200" height="1200" viewBox="0 0 1200 1200">
  <defs>
    <style>
      .cls-1 {
        fill: #a1a1a1;
      }

      .cls-2 {
        fill: #ae8552;
      }

      .cls-3 {
        fill: #fc0;
      }

      .cls-4 {
        fill: none;
      }

      .cls-5 {
        fill: #262626;
      }

      .cls-6 {
        fill: #fff;
      }
    </style>
  </defs>
  <g id="Capa_9" data-name="Capa 9">
    <g>
      <polygon class="cls-1" points="788.32 391.37 925.32 494.67 1034.14 494.67 789.05 309.18 698.24 378.39 751.97 419.05 788.32 391.37"/>
      <polygon class="cls-2" points="572.63 391.37 709.63 494.67 818.45 494.67 573.36 309.18 482.56 378.39 536.28 419.05 572.63 391.37"/>
      <polygon class="cls-3" points="1059.91 514.66 632.62 514.66 384.59 326.95 61.07 573.53 119.23 573.53 167.95 573.53 383.86 409.15 601.89 573.53 1078.69 573.53 1138.93 573.53 1059.91 514.66"/>
      <rect x="218.52" y="824.35" width="4.31" height="31.92"/>
      <polygon points="251.37 850.14 251.28 850.14 235.32 824.35 230.21 824.35 230.21 856.28 234.39 856.28 234.39 830.49 234.47 830.49 250.7 856.28 255.55 856.28 255.55 824.35 251.37 824.35 251.37 850.14"/>
      <polygon points="273.81 851.56 273.72 851.56 264.61 824.35 259.81 824.35 271.46 856.28 276.04 856.28 287.68 824.35 282.84 824.35 273.81 851.56"/>
      <polygon points="296.7 841.78 314.18 841.78 314.18 837.96 296.7 837.96 296.7 828.18 315.64 828.18 315.64 824.35 292.39 824.35 292.39 856.28 315.95 856.28 315.95 852.45 296.7 852.45 296.7 841.78"/>
      <path d="M347,852.36l-.26-5.78c-.18-4.44-2-5.24-3.83-6,2.05-1.2,4.45-2.93,4.45-7.65,0-6.75-5.25-8.58-10.49-8.58H322.13v31.93h4.31v-13.7h10.45c5.15,0,5.69,3.07,5.69,5.69,0,1.2.13,6.05.75,8h5.29v-.71C347.29,854.81,347.07,854.14,347,852.36Zm-10.58-13.47h-10V828H337.2c2.13,0,5.73.4,5.73,5.34C342.93,838.09,339.6,838.89,336.44,838.89Z"/>
      <path d="M370.18,838.94l-9.12-2.09c-1.86-.45-3.77-1.34-3.77-4.05,0-4.85,4.57-5.6,7.29-5.6,3.6,0,7.69,1.56,7.91,6.49h4.05c-.18-3.51-1.29-10.18-12.45-10.18-7.74,0-11,4.89-11,9.87,0,5.56,4.71,7,6.8,7.51l6.53,1.52c5.25,1.24,6.81,2.31,6.81,5.64,0,4.58-5.25,5.38-8.36,5.38-4.09,0-8.8-1.69-8.8-7.47h-4c0,3,.53,5.65,3.24,8.09,1.43,1.29,3.74,3.07,9.65,3.07,5.47,0,12.5-2.09,12.5-9.65C377.43,842.41,374.31,839.91,370.18,838.94Z"/>
      <rect x="383.55" y="824.35" width="4.31" height="31.92"/>
      <path d="M409.16,823.51c-11.92,0-15.56,9.91-15.56,16.81s3.64,16.8,15.56,16.8,15.56-9.91,15.56-16.8S421.08,823.51,409.16,823.51Zm0,29.79c-6.94,0-11.12-5.47-11.12-13s4.18-13,11.12-13,11.12,5.47,11.12,13S416.09,853.3,409.16,853.3Z"/>
      <polygon points="450.99 850.14 450.9 850.14 434.94 824.35 429.82 824.35 429.82 856.28 434 856.28 434 830.49 434.09 830.49 450.32 856.28 455.17 856.28 455.17 824.35 450.99 824.35 450.99 850.14"/>
      <polygon points="466.67 841.78 484.15 841.78 484.15 837.96 466.67 837.96 466.67 828.18 485.61 828.18 485.61 824.35 462.36 824.35 462.36 856.28 485.92 856.28 485.92 852.45 466.67 852.45 466.67 841.78"/>
      <path d="M508.5,838.94l-9.11-2.09c-1.87-.45-3.78-1.34-3.78-4.05,0-4.85,4.58-5.6,7.29-5.6,3.6,0,7.69,1.56,7.92,6.49h4c-.18-3.51-1.29-10.18-12.45-10.18-7.73,0-11,4.89-11,9.87,0,5.56,4.71,7,6.8,7.51l6.54,1.52c5.24,1.24,6.8,2.31,6.8,5.64,0,4.58-5.25,5.38-8.36,5.38-4.09,0-8.8-1.69-8.8-7.47h-4.05c0,3,.54,5.65,3.25,8.09,1.42,1.29,3.73,3.07,9.65,3.07,5.46,0,12.49-2.09,12.49-9.65C515.75,842.41,512.64,839.91,508.5,838.94Z"/>
      <path d="M552.29,839.07a7,7,0,0,0,4.26-6.67c0-4.36-3.06-8-9-8h-14v31.93h13.74c7.07,0,10.84-4.32,10.84-9.43C558.06,841.38,554.37,839.91,552.29,839.07Zm-14.5-11h7.82c4.81,0,6.63,1.69,6.63,4.67,0,3.91-2.53,5.16-6.67,5.16h-7.78Zm9.2,24.55h-9.2V841.38h8.49c3.51,0,7.47.89,7.47,5.38C553.75,850.32,551.48,852.59,547,852.59Z"/>
      <polygon points="567.53 824.35 563.21 824.35 563.21 856.28 583.71 856.28 583.71 852.45 567.53 852.45 567.53 824.35"/>
      <path d="M597.17,824.35l-12,31.93h4.45L593,847h12.81l3.15,9.3h4.71l-11.55-31.93Zm-2.89,18.81,5.12-14h.09l4.71,14Z"/>
      <polygon points="638.74 850.14 638.65 850.14 622.69 824.35 617.57 824.35 617.57 856.28 621.75 856.28 621.75 830.49 621.84 830.49 638.07 856.28 642.92 856.28 642.92 824.35 638.74 824.35 638.74 850.14"/>
      <path d="M662.82,824.35H649.89v31.93h12.76c10.49,0,13.6-9.25,13.6-16.41C676.25,830.67,671.14,824.35,662.82,824.35Zm-.26,28.24H654.2V828h8c5.87,0,9.56,4.05,9.56,12.1S668.16,852.59,662.56,852.59Z"/>
      <path d="M695.67,823.51c-11.91,0-15.56,9.91-15.56,16.81s3.65,16.8,15.56,16.8,15.56-9.91,15.56-16.8S707.59,823.51,695.67,823.51Zm0,29.79c-6.94,0-11.11-5.47-11.11-13s4.17-13,11.11-13,11.12,5.47,11.12,13S702.61,853.3,695.67,853.3Z"/>
      <polygon points="737.5 850.14 737.41 850.14 721.45 824.35 716.34 824.35 716.34 856.28 720.52 856.28 720.52 830.49 720.61 830.49 736.83 856.28 741.68 856.28 741.68 824.35 737.5 824.35 737.5 850.14"/>
      <polygon points="765.1 824.35 760.78 824.35 760.78 856.28 781.28 856.28 781.28 852.45 765.1 852.45 765.1 824.35"/>
      <polygon points="790.26 841.78 807.73 841.78 807.73 837.96 790.26 837.96 790.26 828.18 809.2 828.18 809.2 824.35 785.94 824.35 785.94 856.28 809.51 856.28 809.51 852.45 790.26 852.45 790.26 841.78"/>
      <path d="M829.06,823.51c-11.91,0-15.56,9.91-15.56,16.81s3.65,16.8,15.56,16.8,15.56-9.91,15.56-16.8S841,823.51,829.06,823.51Zm0,29.79c-6.94,0-11.11-5.47-11.11-13s4.17-13,11.11-13,11.12,5.47,11.12,13S836,853.3,829.06,853.3Z"/>
      <polygon points="870.89 850.14 870.8 850.14 854.84 824.35 849.73 824.35 849.73 856.28 853.91 856.28 853.91 830.49 854 830.49 870.22 856.28 875.07 856.28 875.07 824.35 870.89 824.35 870.89 850.14"/>
      <path d="M882.31,856.28h2.35c0,2.09-.49,4.31-2.35,4.49v2c.89-.13,4.62-.84,4.62-6.89v-4.36h-4.62Z"/>
      <path d="M923.47,838.94l-9.12-2.09c-1.86-.45-3.77-1.34-3.77-4.05,0-4.85,4.57-5.6,7.29-5.6,3.6,0,7.69,1.56,7.91,6.49h4.05c-.18-3.51-1.29-10.18-12.45-10.18-7.74,0-11,4.89-11,9.87,0,5.56,4.71,7,6.8,7.51l6.53,1.52c5.25,1.24,6.81,2.31,6.81,5.64,0,4.58-5.25,5.38-8.36,5.38-4.09,0-8.8-1.69-8.8-7.47h-4c0,3,.53,5.65,3.24,8.09,1.43,1.29,3.74,3.07,9.65,3.07,5.47,0,12.5-2.09,12.5-9.65C930.72,842.41,927.6,839.91,923.47,838.94Z"/>
      <rect x="935.78" y="851.56" width="4.62" height="4.71"/>
      <path d="M956.89,824.35l-12,31.93h4.44l3.34-9.3h12.8l3.16,9.3h4.71l-11.56-31.93ZM954,843.16l5.12-14h.08l4.72,14Z"/>
      <rect x="977.78" y="851.56" width="4.62" height="4.71"/>
      <rect class="cls-1" x="119.5" y="876.34" width="959.09" height="14.48"/>
      <polygon class="cls-1" points="956.3 798.81 1021.71 798.81 988.71 706.25 956.3 798.81"/>
      <g>
        <path class="cls-4" d="M359.53,605.93H333a2.34,2.34,0,0,0-2.48,1.85V715.14l-76-108.6c-.21-.41-1.44-.61-1.85-.61H225.17a2.21,2.21,0,0,0-2.06,1.85v163h31.53V661.57l75.48,108.08a2.36,2.36,0,0,0,2.21,1.15h27.2a2.12,2.12,0,0,0,2.27-1.87V607.78A2.11,2.11,0,0,0,359.53,605.93Z"/>
        <path class="cls-4" d="M582,740.08h-57.5V607.78a2,2,0,0,0-2.06-1.85h-27.2a2.26,2.26,0,0,0-2.26,1.85v161a2.38,2.38,0,0,0,2.26,2H582a2.41,2.41,0,0,0,2.27-2.25V742.14A2.12,2.12,0,0,0,582,740.08Z"/>
        <path class="cls-4" d="M212,605.93H147.11a2.26,2.26,0,0,0-2.26,1.85V632.3a2.1,2.1,0,0,0,2.26,1.86H164V742.55h-16.9a2.1,2.1,0,0,0-2.26,1.86v24.52a2.27,2.27,0,0,0,2.26,1.87H212a2.11,2.11,0,0,0,2.26-1.87V744.41c0-1-.82-1.86-2.26-1.86H195.54V634.16H212c1.44,0,2.26-.83,2.26-1.86V607.78A2.1,2.1,0,0,0,212,605.93Z"/>
        <path class="cls-4" d="M592.44,607.78V768.63a2.53,2.53,0,0,0,2.27,2.17h76V740.08H624V703h38.15a2.26,2.26,0,0,0,2.26-1.86V675a2.1,2.1,0,0,0-2.26-1.86H624V635.81h46.78V605.93h-76A2.26,2.26,0,0,0,592.44,607.78Z"/>
        <path class="cls-4" d="M458.88,688.36c12.57-5.16,22.88-16.08,22.88-35.24,0-48.43-55.85-47.19-55.85-47.19H372.13a2.26,2.26,0,0,0-2.27,1.85v96h0v67h56c11.13,0,58.11-2.08,58.11-48C484,722.77,485.05,697.22,458.88,688.36Zm-57.7-53h24.73s24.32-.2,24.32,19.58c0,18.13-24.32,18.13-24.32,18.13H401.18ZM425.91,740.7h-24.8V703.81h24.8s26.58-1.24,26.58,18.13C452.49,737.81,436.22,740.7,425.91,740.7Z"/>
        <path class="cls-4" d="M815.45,605.93H788.87a2.34,2.34,0,0,0-2.48,1.85V715.14l-76-108.6c-.2-.41-1.44-.61-1.85-.61H681.09a2.21,2.21,0,0,0-2.06,1.85v163h31.53V661.57L786,769.49a2.35,2.35,0,0,0,2.26,1.31h27.2a2.12,2.12,0,0,0,2.27-1.87V607.78A2.11,2.11,0,0,0,815.45,605.93Z"/>
        <path class="cls-4" d="M902.08,679.29a60.59,60.59,0,0,0-24.31-5.57c-10.51,0-20.61-6.18-20.61-18.13,0-13.19,9.27-20,20.61-20,10.71,0,19.78,5.56,20.19,17.31a2.31,2.31,0,0,0,2.27,1.65H926c1.44,0,2.47-1,2.26-1.65-.41-28-22.25-47-50.48-47-26.38,0-51.32,18.75-51.32,49.66,0,19.16,9.69,33.8,26.79,41.63a60.78,60.78,0,0,0,24.53,5.56c9.27.41,20.6,7.83,20.6,20,0,10.92-9.68,18.34-20.6,18.34h-.21V770.8h.21c26.37,0,51.1-17.12,51.1-48C928.87,703.4,919.39,687.32,902.08,679.29Z"/>
        <path class="cls-4" d="M990.42,607.16c-.62-1.65-3.51-1.65-4.12,0L923.86,768.31c-.62,1.24.2,2.49,2.06,2.49h28.23a2.09,2.09,0,0,0,2.06-1.25l32.5-91.91,32.21,91.91a2,2,0,0,0,1.85,1.25h28.44a1.79,1.79,0,0,0,1.85-2.49Z"/>
        <path class="cls-5" d="M601.89,573.53l-218-164.38L168,573.53H119.23V798.81H956.3l32.41-92.56,33,92.56h57V573.53ZM214.29,632.3c0,1-.82,1.86-2.26,1.86H195.54V742.55H212c1.44,0,2.26.83,2.26,1.86v24.52A2.11,2.11,0,0,1,212,770.8H147.11a2.27,2.27,0,0,1-2.26-1.87V744.41a2.1,2.1,0,0,1,2.26-1.86H164V634.16h-16.9a2.1,2.1,0,0,1-2.26-1.86V607.78a2.26,2.26,0,0,1,2.26-1.85H212a2.1,2.1,0,0,1,2.26,1.85ZM361.8,768.93a2.12,2.12,0,0,1-2.27,1.87h-27.2a2.36,2.36,0,0,1-2.21-1.15L254.64,661.57V770.8H223.11v-163a2.21,2.21,0,0,1,2.06-1.85h27.41c.41,0,1.64.2,1.85.61l76,108.6V607.78a2.34,2.34,0,0,1,2.48-1.85h26.58a2.11,2.11,0,0,1,2.27,1.85ZM484,722.77c0,46-47,48-58.11,48h-56v-67h0v-96a2.26,2.26,0,0,1,2.27-1.85h53.78s55.85-1.24,55.85,47.19c0,19.16-10.31,30.08-22.88,35.24C485.05,697.22,484,722.77,484,722.77Zm100.23,45.78A2.41,2.41,0,0,1,582,770.8H495.22a2.38,2.38,0,0,1-2.26-2v-161a2.26,2.26,0,0,1,2.26-1.85h27.2a2,2,0,0,1,2.06,1.85v132.3H582a2.12,2.12,0,0,1,2.27,2.06Zm86.5-132.74H624V673.1h38.15a2.1,2.1,0,0,1,2.26,1.86v26.17a2.26,2.26,0,0,1-2.26,1.86H624v37.09h46.78V770.8h-76a2.53,2.53,0,0,1-2.27-2.17V607.78a2.26,2.26,0,0,1,2.27-1.85h76Zm147,133.12a2.12,2.12,0,0,1-2.27,1.87h-27.2a2.35,2.35,0,0,1-2.26-1.31L710.56,661.57V770.8H679v-163a2.21,2.21,0,0,1,2.06-1.85H708.5c.41,0,1.65.2,1.85.61l76,108.6V607.78a2.34,2.34,0,0,1,2.48-1.85h26.58a2.11,2.11,0,0,1,2.27,1.85Zm60,1.87h-.21V741.11h.21c10.92,0,20.6-7.42,20.6-18.34,0-12.16-11.33-19.58-20.6-20a60.78,60.78,0,0,1-24.53-5.56c-17.1-7.83-26.79-22.47-26.79-41.63,0-30.91,24.94-49.66,51.32-49.66,28.23,0,50.07,19,50.48,47,.21.62-.82,1.65-2.26,1.65H900.23a2.31,2.31,0,0,1-2.27-1.65c-.41-11.75-9.48-17.31-20.19-17.31-11.34,0-20.61,6.8-20.61,20,0,11.95,10.1,18.13,20.61,18.13a60.59,60.59,0,0,1,24.31,5.57c17.31,8,26.79,24.11,26.79,43.48C928.87,753.68,904.14,770.8,877.77,770.8Zm173.44,0h-28.44a2,2,0,0,1-1.85-1.25l-32.21-91.91-32.5,91.91a2.09,2.09,0,0,1-2.06,1.25H925.92c-1.86,0-2.68-1.25-2.06-2.49L986.3,607.16c.61-1.65,3.5-1.65,4.12,0l62.64,161.15A1.79,1.79,0,0,1,1051.21,770.8Z"/>
        <path class="cls-5" d="M450.23,655c0-19.78-24.32-19.58-24.32-19.58H401.18V673.1h24.73S450.23,673.1,450.23,655Z"/>
        <path class="cls-5" d="M425.91,703.81h-24.8V740.7h24.8c10.31,0,26.58-2.89,26.58-18.76C452.49,702.57,425.91,703.81,425.91,703.81Z"/>
      </g>
      <path class="cls-6" d="M212,605.93H147.11a2.26,2.26,0,0,0-2.26,1.85V632.3a2.1,2.1,0,0,0,2.26,1.86H164V742.55h-16.9a2.1,2.1,0,0,0-2.26,1.86v24.52a2.27,2.27,0,0,0,2.26,1.87H212a2.11,2.11,0,0,0,2.26-1.87V744.41c0-1-.82-1.86-2.26-1.86H195.54V634.16H212c1.44,0,2.26-.83,2.26-1.86V607.78A2.1,2.1,0,0,0,212,605.93Z"/>
      <path class="cls-6" d="M359.53,605.93H333a2.34,2.34,0,0,0-2.48,1.85V715.14l-76-108.6c-.21-.41-1.44-.61-1.85-.61H225.17a2.21,2.21,0,0,0-2.06,1.85v163h31.53V661.57l75.48,108.08a2.36,2.36,0,0,0,2.21,1.15h27.2a2.12,2.12,0,0,0,2.27-1.87V607.78A2.11,2.11,0,0,0,359.53,605.93Z"/>
      <path class="cls-6" d="M458.88,688.36c12.57-5.16,22.88-16.08,22.88-35.24,0-48.43-55.85-47.19-55.85-47.19H372.13a2.26,2.26,0,0,0-2.27,1.85v96h0v67h56c11.13,0,58.11-2.08,58.11-48C484,722.77,485.05,697.22,458.88,688.36Zm-57.7-53h24.73s24.32-.2,24.32,19.58c0,18.13-24.32,18.13-24.32,18.13H401.18ZM425.91,740.7h-24.8V703.81h24.8s26.58-1.24,26.58,18.13C452.49,737.81,436.22,740.7,425.91,740.7Z"/>
      <path class="cls-6" d="M582,740.08h-57.5V607.78a2,2,0,0,0-2.06-1.85h-27.2a2.26,2.26,0,0,0-2.26,1.85v161a2.38,2.38,0,0,0,2.26,2H582a2.41,2.41,0,0,0,2.27-2.25V742.14A2.12,2.12,0,0,0,582,740.08Z"/>
      <path class="cls-6" d="M592.44,607.78V768.63a2.53,2.53,0,0,0,2.27,2.17h76V740.08H624V703h38.15a2.26,2.26,0,0,0,2.26-1.86V675a2.1,2.1,0,0,0-2.26-1.86H624V635.81h46.78V605.93h-76A2.26,2.26,0,0,0,592.44,607.78Z"/>
      <path class="cls-6" d="M710.56,661.57,786,769.49a2.35,2.35,0,0,0,2.26,1.31h27.2a2.12,2.12,0,0,0,2.27-1.87V607.78a2.11,2.11,0,0,0-2.27-1.85H788.87a2.34,2.34,0,0,0-2.48,1.85V715.14l-76-108.6c-.2-.41-1.44-.61-1.85-.61H681.09a2.21,2.21,0,0,0-2.06,1.85v163h31.53Z"/>
      <path class="cls-6" d="M853.24,697.22a60.78,60.78,0,0,0,24.53,5.56c9.27.41,20.6,7.83,20.6,20,0,10.92-9.68,18.34-20.6,18.34h-.21V770.8h.21c26.37,0,51.1-17.12,51.1-48,0-19.37-9.48-35.45-26.79-43.48a60.59,60.59,0,0,0-24.31-5.57c-10.51,0-20.61-6.18-20.61-18.13,0-13.19,9.27-20,20.61-20,10.71,0,19.78,5.56,20.19,17.31a2.31,2.31,0,0,0,2.27,1.65H926c1.44,0,2.47-1,2.26-1.65-.41-28-22.25-47-50.48-47-26.38,0-51.32,18.75-51.32,49.66C826.45,674.75,836.14,689.39,853.24,697.22Z"/>
      <path class="cls-6" d="M925.92,770.8h28.23a2.09,2.09,0,0,0,2.06-1.25l32.5-91.91,32.21,91.91a2,2,0,0,0,1.85,1.25h28.44a1.79,1.79,0,0,0,1.85-2.49L990.42,607.16c-.62-1.65-3.51-1.65-4.12,0L923.86,768.31C923.24,769.55,924.06,770.8,925.92,770.8Z"/>
    </g>
  </g>
</svg>
